<svg version="1.1" id="Layer_1" xmlns="http://www.w3.org/2000/svg" xmlns:xlink="http://www.w3.org/1999/xlink" x="0px" y="0px"
	 width="100%" viewBox="0 0 275 205" enable-background="new 0 0 275 205" xml:space="preserve">
<path fill="#FFFFFF" opacity="1.000000" stroke="none" 
	d="
M152.000000,206.000000 
	C101.333336,206.000000 51.166679,206.000000 1.000014,206.000000 
	C1.000009,137.666687 1.000009,69.333359 1.000005,1.000032 
	C92.666649,1.000021 184.333298,1.000021 275.999939,1.000011 
	C275.999969,69.333298 275.999969,137.666595 276.000000,205.999939 
	C234.833328,206.000000 193.666672,206.000000 152.000000,206.000000 
M249.816879,150.189743 
	C255.411346,139.374420 254.970261,128.800217 248.616043,118.423759 
	C247.941116,117.321625 247.250885,116.066849 247.116776,114.823662 
	C246.541916,109.495003 243.455078,106.657166 238.573959,104.965790 
	C228.680511,101.537575 218.918442,97.730705 209.029541,94.288734 
	C202.814224,92.125412 198.073624,88.238266 194.050003,83.158180 
	C186.406815,73.508133 178.176437,64.288025 171.039566,54.283279 
	C165.399506,46.376839 158.263611,44.963276 149.633286,46.424671 
	C148.488297,46.618553 147.341461,46.830452 146.186523,46.932568 
	C122.523186,49.024830 98.858940,51.106682 75.193947,53.180096 
	C68.076599,53.803684 62.330048,56.473450 57.858727,62.494701 
	C50.324963,72.639946 41.927254,82.148529 34.509338,92.372147 
	C32.032047,95.786423 30.760309,100.473694 30.161100,104.750496 
	C29.428782,109.977348 29.981398,115.384575 29.982557,120.713799 
	C29.984804,131.039169 29.896706,141.365799 30.035791,151.689346 
	C30.099314,156.404465 32.993530,158.453842 39.026192,158.780869 
	C42.940582,158.993073 45.543449,159.001907 46.285362,153.492615 
	C47.685066,143.098770 54.243004,136.025726 64.354187,132.990204 
	C74.137688,130.053085 83.030640,132.025146 90.707649,139.093735 
	C96.413277,144.347183 98.304138,151.287384 99.481689,158.765259 
	C109.855354,158.765259 119.829712,158.765274 129.804077,158.765274 
	C139.745560,158.765274 149.687042,158.765259 159.619812,158.765259 
	C159.965988,157.189667 160.176315,156.225708 160.389648,155.262421 
	C163.749786,140.090256 173.185165,131.943497 187.024612,131.749252 
	C200.673965,131.557693 212.690125,142.707901 213.428436,155.462189 
	C213.496140,156.631989 215.857788,158.523102 217.248535,158.612503 
	C222.887589,158.975037 228.580444,158.488800 234.221436,158.835968 
	C241.063293,159.257034 246.151199,156.909088 249.816879,150.189743 
M54.804089,146.403549 
	C49.659901,153.964203 49.767384,161.740921 54.254326,169.441772 
	C58.407692,176.570145 64.780670,179.417892 73.072166,179.194977 
	C87.477341,178.807678 97.316513,164.366043 91.952995,150.964035 
	C85.567329,135.007965 66.820816,132.365860 54.804089,146.403549 
M169.610168,170.737701 
	C174.383347,177.183105 180.735565,179.686661 188.735153,179.186691 
	C197.177048,178.659058 202.807159,174.334549 206.173569,167.068680 
	C209.785675,159.272552 208.469986,151.683914 203.206406,145.038391 
	C198.153946,138.659393 191.240036,135.877914 183.278427,137.621155 
	C167.662689,141.040298 161.546494,155.514038 169.610168,170.737701 
z"/>
<path fill="#A2A4A5" opacity="1.000000" stroke="none" 
	d="
M249.618103,150.507355 
	C246.151199,156.909088 241.063293,159.257034 234.221436,158.835968 
	C228.580444,158.488800 222.887589,158.975037 217.248535,158.612503 
	C215.857788,158.523102 213.496140,156.631989 213.428436,155.462189 
	C212.690125,142.707901 200.673965,131.557693 187.024612,131.749252 
	C173.185165,131.943497 163.749786,140.090256 160.389648,155.262421 
	C160.176315,156.225708 159.965988,157.189667 159.619812,158.765259 
	C149.687042,158.765259 139.745560,158.765274 129.804077,158.765274 
	C119.829712,158.765274 109.855354,158.765259 99.481689,158.765259 
	C98.304138,151.287384 96.413277,144.347183 90.707649,139.093735 
	C83.030640,132.025146 74.137688,130.053085 64.354187,132.990204 
	C54.243004,136.025726 47.685066,143.098770 46.285362,153.492615 
	C45.543449,159.001907 42.940582,158.993073 39.026192,158.780869 
	C32.993530,158.453842 30.099314,156.404465 30.035791,151.689346 
	C29.896706,141.365799 29.984804,131.039169 29.982557,120.713799 
	C29.981398,115.384575 29.428782,109.977348 30.161100,104.750496 
	C30.760309,100.473694 32.032047,95.786423 34.509338,92.372147 
	C41.927254,82.148529 50.324963,72.639946 57.858727,62.494701 
	C62.330048,56.473450 68.076599,53.803684 75.193947,53.180096 
	C98.858940,51.106682 122.523186,49.024830 146.186523,46.932568 
	C147.341461,46.830452 148.488297,46.618553 149.633286,46.424671 
	C158.263611,44.963276 165.399506,46.376839 171.039566,54.283279 
	C178.176437,64.288025 186.406815,73.508133 194.050003,83.158180 
	C198.073624,88.238266 202.814224,92.125412 209.029541,94.288734 
	C218.918442,97.730705 228.680511,101.537575 238.573959,104.965790 
	C243.455078,106.657166 246.541916,109.495003 247.116776,114.823662 
	C247.250885,116.066849 247.941116,117.321625 248.616043,118.423759 
	C254.970261,128.800217 255.411346,139.374420 249.618103,150.507355 
M123.643417,92.773216 
	C143.555130,92.773216 163.466843,92.773216 183.370804,92.773216 
	C183.370804,91.848091 183.503967,91.429344 183.351715,91.239594 
	C175.230392,81.117760 167.114807,70.990784 158.889542,60.953758 
	C158.174606,60.081337 156.677063,59.267673 155.615921,59.351311 
	C144.523071,60.225632 133.431488,61.170536 122.379349,62.441841 
	C120.909904,62.610870 118.675468,64.556618 118.471695,65.928551 
	C117.186935,74.578102 116.375717,83.297989 115.321495,92.772766 
	C118.143372,92.772766 120.417900,92.772766 123.643417,92.773216 
M82.499985,92.773209 
	C88.486992,92.773254 94.473991,92.773392 100.460999,92.773308 
	C108.322449,92.773193 108.488678,92.796432 109.551987,85.216110 
	C110.553047,78.079666 111.152756,70.886932 111.966743,63.370766 
	C102.663116,64.273621 94.066780,65.971008 85.528336,65.717621 
	C74.892075,65.401970 67.746071,69.584290 62.312840,78.344749 
	C59.342110,83.134705 55.456684,87.357384 51.257229,92.772751 
	C62.284554,92.772751 71.892265,92.772751 82.499985,92.773209 
M113.996918,127.499992 
	C113.996101,119.523178 114.069153,111.544937 113.914299,103.571114 
	C113.891243,102.384109 112.795540,101.217941 112.196068,100.042122 
	C111.465652,101.253395 110.111320,102.458687 110.099648,103.676857 
	C109.954651,118.798164 109.964035,133.921661 110.082802,149.043427 
	C110.092308,150.253143 111.203331,151.454224 111.802483,152.659317 
	C112.533401,151.419724 113.857582,150.198380 113.896362,148.937500 
	C114.105690,142.130386 113.996353,135.313492 113.996918,127.499992 
M186.843201,105.591576 
	C186.839630,103.594734 187.151123,101.527000 186.723251,99.625641 
	C186.431274,98.328201 185.106598,97.263145 184.243652,96.094185 
	C183.514374,97.224716 182.183090,98.339722 182.153488,99.488289 
	C181.960617,106.971619 181.939499,114.465393 182.153107,121.947449 
	C182.190002,123.239883 183.614319,124.492706 184.397766,125.763832 
	C185.211517,124.523697 186.660233,123.316978 186.727554,122.037567 
	C186.998245,116.893173 186.841583,111.726288 186.843201,105.591576 
M136.513977,110.369888 
	C138.431824,107.090118 137.231018,105.264130 133.714523,104.942192 
	C131.079803,104.700981 128.360916,104.609589 125.766998,105.013405 
	C124.447075,105.218880 123.320030,106.663284 122.105789,107.547638 
	C123.126221,108.851250 124.056686,111.170380 125.183746,111.270210 
	C128.724060,111.583817 132.338333,111.062592 136.513977,110.369888 
M246.158432,127.063522 
	C244.367859,132.973053 244.118042,138.798035 246.804901,144.945847 
	C250.859818,138.335495 250.635056,130.267548 246.158432,127.063522 
z"/>
<path fill="#A4A5A6" opacity="1.000000" stroke="none" 
	d="
M54.996704,146.093079 
	C66.820816,132.365860 85.567329,135.007965 91.952995,150.964035 
	C97.316513,164.366043 87.477341,178.807678 73.072166,179.194977 
	C64.780670,179.417892 58.407692,176.570145 54.254326,169.441772 
	C49.767384,161.740921 49.659901,153.964203 54.996704,146.093079 
M64.230995,149.598404 
	C63.431862,150.651337 62.449394,151.612228 61.866280,152.773636 
	C59.685726,157.116669 59.932228,161.440216 62.694565,165.421738 
	C65.450447,169.393951 70.812408,171.306412 75.510017,169.867065 
	C79.934990,168.511261 82.949287,165.407043 83.832085,160.815018 
	C84.750221,156.039169 83.193184,151.786499 79.249100,148.948273 
	C74.563301,145.576263 69.608711,146.099625 64.230995,149.598404 
z"/>
<path fill="#A3A5A6" opacity="1.000000" stroke="none" 
	d="
M169.403519,170.430420 
	C161.546494,155.514038 167.662689,141.040298 183.278427,137.621155 
	C191.240036,135.877914 198.153946,138.659393 203.206406,145.038391 
	C208.469986,151.683914 209.785675,159.272552 206.173569,167.068680 
	C202.807159,174.334549 197.177048,178.659058 188.735153,179.186691 
	C180.735565,179.686661 174.383347,177.183105 169.403519,170.430420 
M183.243698,169.862778 
	C184.402374,169.940903 185.561172,170.088104 186.719681,170.085754 
	C193.432495,170.072144 198.255722,165.793961 198.855545,159.362701 
	C199.362396,153.928207 195.310135,148.301666 189.998734,147.065033 
	C183.462372,145.543198 177.882309,148.537552 175.664307,154.757126 
	C173.653015,160.397110 176.001404,165.493042 183.243698,169.862778 
z"/>
<path fill="#FCFCFD" opacity="1.000000" stroke="none" 
	d="
M123.167923,92.772995 
	C120.417900,92.772766 118.143372,92.772766 115.321495,92.772766 
	C116.375717,83.297989 117.186935,74.578102 118.471695,65.928551 
	C118.675468,64.556618 120.909904,62.610870 122.379349,62.441841 
	C133.431488,61.170536 144.523071,60.225632 155.615921,59.351311 
	C156.677063,59.267673 158.174606,60.081337 158.889542,60.953758 
	C167.114807,70.990784 175.230392,81.117760 183.351715,91.239594 
	C183.503967,91.429344 183.370804,91.848091 183.370804,92.773216 
	C163.466843,92.773216 143.555130,92.773216 123.167923,92.772995 
z"/>
<path fill="#FCFCFD" opacity="1.000000" stroke="none" 
	d="
M81.999985,92.772980 
	C71.892265,92.772751 62.284554,92.772751 51.257229,92.772751 
	C55.456684,87.357384 59.342110,83.134705 62.312840,78.344749 
	C67.746071,69.584290 74.892075,65.401970 85.528336,65.717621 
	C94.066780,65.971008 102.663116,64.273621 111.966743,63.370766 
	C111.152756,70.886932 110.553047,78.079666 109.551987,85.216110 
	C108.488678,92.796432 108.322449,92.773193 100.460999,92.773308 
	C94.473991,92.773392 88.486992,92.773254 81.999985,92.772980 
z"/>
<path fill="#FFFFFF" opacity="1.000000" stroke="none" 
	d="
M113.996918,127.999985 
	C113.996353,135.313492 114.105690,142.130386 113.896362,148.937500 
	C113.857582,150.198380 112.533401,151.419724 111.802475,152.659317 
	C111.203331,151.454224 110.092308,150.253143 110.082802,149.043427 
	C109.964035,133.921661 109.954651,118.798164 110.099648,103.676857 
	C110.111320,102.458687 111.465652,101.253395 112.196075,100.042130 
	C112.795540,101.217941 113.891243,102.384109 113.914299,103.571114 
	C114.069153,111.544937 113.996101,119.523178 113.996918,127.999985 
z"/>
<path fill="#F1F2F2" opacity="1.000000" stroke="none" 
	d="
M186.843018,106.079651 
	C186.841583,111.726288 186.998245,116.893173 186.727554,122.037567 
	C186.660233,123.316978 185.211517,124.523697 184.397766,125.763832 
	C183.614319,124.492706 182.190002,123.239883 182.153107,121.947449 
	C181.939499,114.465393 181.960617,106.971619 182.153488,99.488289 
	C182.183090,98.339722 183.514374,97.224716 184.243652,96.094185 
	C185.106598,97.263145 186.431274,98.328201 186.723251,99.625641 
	C187.151123,101.527000 186.839630,103.594734 186.843018,106.079651 
z"/>
<path fill="#F9F9F9" opacity="1.000000" stroke="none" 
	d="
M136.218964,110.617264 
	C132.338333,111.062592 128.724060,111.583817 125.183746,111.270210 
	C124.056686,111.170380 123.126221,108.851250 122.105789,107.547638 
	C123.320030,106.663284 124.447075,105.218880 125.766998,105.013405 
	C128.360916,104.609589 131.079803,104.700981 133.714523,104.942192 
	C137.231018,105.264130 138.431824,107.090118 136.218964,110.617264 
z"/>
<path fill="#F9F9F9" opacity="1.000000" stroke="none" 
	d="
M246.384460,126.751495 
	C250.635056,130.267548 250.859818,138.335495 246.804901,144.945847 
	C244.118042,138.798035 244.367859,132.973053 246.384460,126.751495 
z"/>
<path fill="#FEFEFE" opacity="1.000000" stroke="none" 
	d="
M64.535873,149.363983 
	C69.608711,146.099625 74.563301,145.576263 79.249100,148.948273 
	C83.193184,151.786499 84.750221,156.039169 83.832085,160.815018 
	C82.949287,165.407043 79.934990,168.511261 75.510017,169.867065 
	C70.812408,171.306412 65.450447,169.393951 62.694565,165.421738 
	C59.932228,161.440216 59.685726,157.116669 61.866280,152.773636 
	C62.449394,151.612228 63.431862,150.651337 64.535873,149.363983 
z"/>
<path fill="#FDFDFD" opacity="1.000000" stroke="none" 
	d="
M182.866364,169.714676 
	C176.001404,165.493042 173.653015,160.397110 175.664307,154.757126 
	C177.882309,148.537552 183.462372,145.543198 189.998734,147.065033 
	C195.310135,148.301666 199.362396,153.928207 198.855545,159.362701 
	C198.255722,165.793961 193.432495,170.072144 186.719681,170.085754 
	C185.561172,170.088104 184.402374,169.940903 182.866364,169.714676 
z"/>
</svg>